<svg width="40" height="41" viewBox="0 0 40 41" fill="none" xmlns="http://www.w3.org/2000/svg">
<path d="M28.72 24.0099C28.88 22.6899 29 21.3699 29 20.0099C29 18.6499 28.88 17.3299 28.72 16.0099H35.48C35.8 17.2899 36 18.6299 36 20.0099C36 21.3899 35.8 22.7299 35.48 24.0099H28.72ZM25.18 35.1299C26.38 32.9099 27.3 30.5099 27.94 28.0099H33.84C31.92 31.3099 28.86 33.8699 25.18 35.1299ZM24.68 24.0099H15.32C15.12 22.6899 15 21.3699 15 20.0099C15 18.6499 15.12 17.3099 15.32 16.0099H24.68C24.86 17.3099 25 18.6499 25 20.0099C25 21.3699 24.86 22.6899 24.68 24.0099ZM20 35.9299C18.34 33.5299 17 30.8699 16.18 28.0099H23.82C23 30.8699 21.66 33.5299 20 35.9299ZM12 12.0099H6.16C8.06 8.68989 11.14 6.12989 14.8 4.88989C13.6 7.10989 12.7 9.50989 12 12.0099ZM6.16 28.0099H12C12.7 30.5099 13.6 32.9099 14.8 35.1299C11.14 33.8699 8.06 31.3099 6.16 28.0099ZM4.52 24.0099C4.2 22.7299 4 21.3899 4 20.0099C4 18.6299 4.2 17.2899 4.52 16.0099H11.28C11.12 17.3299 11 18.6499 11 20.0099C11 21.3699 11.12 22.6899 11.28 24.0099H4.52ZM20 4.06989C21.66 6.46989 23 9.14989 23.82 12.0099H16.18C17 9.14989 18.34 6.46989 20 4.06989ZM33.84 12.0099H27.94C27.3 9.50989 26.38 7.10989 25.18 4.88989C28.86 6.14989 31.92 8.68989 33.84 12.0099ZM20 0.0098877C8.94 0.0098877 0 9.00989 0 20.0099C0 25.3142 2.10714 30.4013 5.85786 34.152C7.71504 36.0092 9.91982 37.4824 12.3463 38.4875C14.7728 39.4926 17.3736 40.0099 20 40.0099C25.3043 40.0099 30.3914 37.9028 34.1421 34.152C37.8929 30.4013 40 25.3142 40 20.0099C40 17.3834 39.4827 14.7827 38.4776 12.3562C37.4725 9.92971 35.9993 7.72492 34.1421 5.86775C32.285 4.01058 30.0802 2.53739 27.6537 1.5323C25.2272 0.527203 22.6264 0.0098877 20 0.0098877Z" fill="#0467C9"/>
</svg>
