<svg width="40" height="35" viewBox="0 0 40 35" fill="none" xmlns="http://www.w3.org/2000/svg">
<path d="M20 26.0099C18.4087 26.0099 16.8826 25.3777 15.7574 24.2525C14.6321 23.1273 14 21.6012 14 20.0099C14 17.7699 15.22 15.8099 17 14.7899L36.42 3.54989L25.36 22.7099C24.36 24.6699 22.34 26.0099 20 26.0099ZM20 0.0098877C23.62 0.0098877 27 1.00989 29.94 2.64989L25.74 5.06989C24 4.38989 22 4.00989 20 4.00989C15.7565 4.00989 11.6869 5.6956 8.68629 8.69618C5.68571 11.6968 4 15.7664 4 20.0099C4 24.4299 5.78 28.4299 8.68 31.3099H8.7C9.48 32.0899 9.48 33.3499 8.7 34.1299C7.92 34.9099 6.64 34.9099 5.86 34.1499C2.24 30.5299 0 25.5299 0 20.0099C0 14.7056 2.10714 9.61848 5.85786 5.86775C9.60859 2.11702 14.6957 0.0098877 20 0.0098877ZM40 20.0099C40 25.5299 37.76 30.5299 34.14 34.1499C33.36 34.9099 32.1 34.9099 31.32 34.1299C30.54 33.3499 30.54 32.0899 31.32 31.3099C34.22 28.4099 36 24.4299 36 20.0099C36 18.0099 35.62 16.0099 34.92 14.2099L37.34 10.0099C39 13.0099 40 16.3699 40 20.0099Z" fill="#0467C9"/>
</svg>
