<svg width="40" height="43" viewBox="0 0 40 43" fill="none" xmlns="http://www.w3.org/2000/svg">
<path d="M24 32.0099V28.0099L16 35.0099L24 42.0099V38.0099H30V32.0099H24ZM40 27.0099L32 20.0099V24.0099H26V30.0099H32V34.0099L40 27.0099ZM39.32 13.4699L35.32 6.54989C35.08 6.10989 34.56 5.92989 34.1 6.10989L29.12 8.10989C28.1 7.28989 27 6.62989 25.74 6.10989L25 0.849888C24.92 0.369888 24.5 0.0098877 24 0.0098877H16C15.5 0.0098877 15.08 0.369888 15 0.849888L14.26 6.14989C13 6.66989 11.92 7.32989 10.88 8.14989L5.99999 6.10989C5.53999 5.92989 4.99999 6.10989 4.77999 6.54989L0.779989 13.4699C0.519989 13.8899 0.619988 14.4499 0.999988 14.7499L5.13999 18.0099C5.05999 18.6699 4.99999 19.3499 4.99999 20.0099C4.99999 20.6699 5.05999 21.3499 5.13999 22.0099L0.919988 25.2699C0.519989 25.5699 0.419988 26.1299 0.679988 26.5499L4.67999 33.4699C4.89999 34.0099 5.47999 34.2299 5.99999 34.0099L11 32.0099C11.48 32.3899 12 32.7499 12.52 33.0699L19.54 27.0699C15.68 26.8099 12.76 23.4699 13 19.6099C13.3 15.7499 16.64 12.8299 20.5 13.1099C23.38 13.2899 25.84 15.2499 26.7 18.0099H34.86L39.08 14.7499C39.46 14.4499 39.56 13.8899 39.32 13.4699Z" fill="#0467C9"/>
</svg>
