<svg width="40" height="41" viewBox="0 0 40 41" fill="none" xmlns="http://www.w3.org/2000/svg">
<path d="M36.4 4.00989H36H30V0.0098877H10V4.00989H5H3.6H0V18.0099C0 20.0099 2 22.0099 4 22.0099H10.4C11.2 25.8099 13.2 29.2099 18 29.8099V34.0099C12 34.4099 12 36.6099 12 39.2099V40.0099H28V39.4099C28 36.8099 28 34.6099 22 34.2099V30.0099C27 29.4099 29 26.0099 29.6 22.2099H36C38 22.2099 40 20.2099 40 18.2099V4.00989H36.4ZM4 18.0099V8.00989H10V12.0099V18.0099C7.2 18.0099 4.8 18.0099 4 18.0099ZM36 18.0099C35.2 18.0099 32.8 18.0099 30 18.0099V8.00989H32H36V18.0099Z" fill="#0467C9"/>
</svg>
