<svg width="32" height="37" viewBox="0 0 32 37" fill="none" xmlns="http://www.w3.org/2000/svg">
<path d="M16 0.0098877C7.16 0.0098877 0 3.58989 0 8.00989C0 12.4299 7.16 16.0099 16 16.0099C24.84 16.0099 32 12.4299 32 8.00989C32 3.58989 24.84 0.0098877 16 0.0098877ZM0 12.0099V18.0099C0 22.4299 7.16 26.0099 16 26.0099C24.84 26.0099 32 22.4299 32 18.0099V12.0099C32 16.4299 24.84 20.0099 16 20.0099C7.16 20.0099 0 16.4299 0 12.0099ZM0 22.0099V28.0099C0 32.4299 7.16 36.0099 16 36.0099C24.84 36.0099 32 32.4299 32 28.0099V22.0099C32 26.4299 24.84 30.0099 16 30.0099C7.16 30.0099 0 26.4299 0 22.0099Z" fill="#0467C9"/>
</svg>
